<svg xmlns="http://www.w3.org/2000/svg" viewBox="0 0 1332.16 520.18" aria-label="Aerus">
  <title>Aerus logo lockup</title>

  <g class="aerus-wordmark" fill="#FFFFFF">
    <path d="M79.8,298.13l-19.28,54.25H39.6l71.04-192.75h21.48l71.04,192.75h-20.93l-19.28-54.25H79.8z M121.38,180.83 l-35.25,99.68h70.77L121.38,180.83z"></path>
    <path d="M231.8,282.44c0.92,17.44,6.15,31.21,15.7,41.3c9.55,10.1,21.75,15.14,36.62,15.14 c11.38,0,21.39-2.98,30.01-8.95c8.63-5.97,14.69-14,18.17-24.09h20.38c-3.3,14.69-11.2,26.66-23.68,35.93 c-12.48,9.27-27.44,13.91-44.88,13.91c-14.32,0-27.03-3.26-38.14-9.78c-11.11-6.52-19.69-15.79-25.75-27.81 c-6.06-12.02-9.09-25.84-9.09-41.44c0-16.15,3.07-30.2,9.22-42.13c6.15-11.93,14.73-21.07,25.75-27.4 c11.01-6.33,23.68-9.5,38-9.5c13.22,0,25.15,3.03,35.8,9.09c10.65,6.06,19,14.41,25.06,25.06c6.06,10.65,9.09,22.49,9.09,35.52 v15.14H231.8z M239.65,239.48c-4.5,7.71-7.11,16.34-7.85,25.88h102.71c-1.1-15.05-6.2-27.31-15.28-36.76 c-9.09-9.45-20.79-14.18-35.11-14.18c-9.73,0-18.45,2.25-26.16,6.75C250.25,225.67,244.15,231.77,239.65,239.48z"></path>
    <path d="M401.15,200.93v29.46h0.55c3.67-9.36,9.32-17.16,16.93-23.4c7.62-6.24,17.39-9.36,29.33-9.36h16.25v16.8 h-19.55c-13.22,0-23.68,4.59-31.39,13.77c-7.71,9.18-11.57,22.12-11.57,38.83v85.36h-19.28V200.93H401.15z"></path>
    <path d="M483.2,296.48v-95.55h19.28V294c0,14.69,3.26,25.79,9.78,33.32c6.52,7.53,15.28,11.29,26.3,11.29 c8.08,0,15.56-2.02,22.44-6.06c6.88-4.04,12.44-10,16.66-17.9c4.22-7.89,6.33-17.35,6.33-28.36v-85.36h19.28v151.45h-18.72 v-31.12h-0.55c-4.22,9.73-10.51,17.9-18.86,24.51c-8.35,6.61-18.59,9.91-30.7,9.91c-15.79,0-28.27-5.32-37.45-15.97 C487.79,329.06,483.2,314.65,483.2,296.48z"></path>
    <path d="M693.57,335.58c10.1,0,18.22-2.66,24.37-7.99c6.15-5.32,9.22-12.12,9.22-20.38c0-7.89-2.71-14-8.12-18.31 c-5.42-4.31-13.35-6.47-23.82-6.47h-18.17c-13.4,0-24.28-3.72-32.63-11.15c-8.35-7.43-12.53-17.58-12.53-30.43 c0-12.48,4.36-22.26,13.08-29.33c8.72-7.07,20.51-10.6,35.38-10.6h60.58v16.8h-58.65c-9.36,0-16.7,2.06-22.03,6.2 s-7.99,9.78-7.99,16.93c0,7.53,2.48,13.58,7.43,18.17c4.96,4.59,11.84,6.88,20.65,6.88h17.35c15.42,0,27.58,3.63,36.48,10.88 c8.9,7.25,13.35,17.39,13.35,30.43c0,13.77-4.77,24.74-14.32,32.91s-22.21,12.25-38,12.25h-59.75v-16.8H693.57z"></path>
  </g>

  <path class="aerus-symbol" fill="#AEF821" d="M1229.75,352.28h-205.61c-6.96,0-16.45-4.25-21.08-9.41l-49.27-54.8c-23.86-26.57-30-19.23-31.31-10.58v44.52 c0,11.67-4.82,22.81-13.29,30.86l-101.62,96.39v-63.23c0-11.22,4.44-22.02,12.38-30l102.48-102.86L820.57,139.75h114.56 c16.86,0,41.36,8.66,54.5,19.19L1229.75,352.28z"></path>

  <path class="aerus-r" fill="#FFFFFF" d="M1275.58,336.23c0,9.29-7.45,16.79-16.61,16.79c-9.2,0-16.65-7.5-16.65-16.79c0-9.2,7.45-16.7,16.65-16.7 C1268.13,319.53,1275.58,327.03,1275.58,336.23z M1272.36,336.23c0-7.45-6.03-13.62-13.39-13.62c-7.41,0-13.43,6.12-13.43,13.62 c0,7.59,6.03,13.71,13.43,13.71C1266.33,349.94,1272.36,343.82,1272.36,336.23z M1262.19,337.43c1.79,0.88,2.48,2.44,3.04,4.14 l1.06,3.31h-3.31l-1.1-3.31c-0.83-2.39-1.38-2.85-3.73-2.85h-2.48v6.16h-3.08v-17.3h7.18c3.73,0,6.58,1.84,6.58,5.11 C1266.33,335.22,1264.63,336.83,1262.19,337.43z M1263.02,333.15c0-1.66-1.33-2.71-3.27-2.71h-4.09v5.38h3.77 C1261.69,335.82,1263.02,334.8,1263.02,333.15z"></path>
</svg>
